<svg width="165" height="48" viewBox="0 0 165 48" fill="none" xmlns="http://www.w3.org/2000/svg">
<rect width="165" height="48" fill="#FEFAF4"/>
<path d="M-5.28991e-07 4.44001C1.08 4.48001 2.52 4.52001 4.32 4.56001C6.12 4.60001 7.92 4.62001 9.72 4.62001C11.68 4.62001 13.56 4.60001 15.36 4.56001C17.2 4.52001 18.5 4.50001 19.26 4.50001C24.46 4.50001 28.34 5.38001 30.9 7.14001C33.5 8.90001 34.8 11.16 34.8 13.92C34.8 15.32 34.34 16.76 33.42 18.24C32.5 19.68 31.08 20.98 29.16 22.14C27.28 23.26 24.86 24.04 21.9 24.48V24.6C25.82 24.84 28.94 25.52 31.26 26.64C33.62 27.72 35.32 29.02 36.36 30.54C37.4 32.06 37.92 33.64 37.92 35.28C37.92 37.88 37.22 40.04 35.82 41.76C34.46 43.48 32.48 44.78 29.88 45.66C27.32 46.5 24.24 46.92 20.64 46.92C19.68 46.92 18.28 46.9 16.44 46.86C14.6 46.78 12.4 46.74 9.84 46.74C7.96 46.74 6.12 46.76 4.32 46.8C2.52 46.8 1.08 46.84 -5.28991e-07 46.92V45.72C1.24 45.64 2.16 45.48 2.76 45.24C3.4 45 3.82 44.52 4.02 43.8C4.26 43.08 4.38 42 4.38 40.56V10.8C4.38 9.32001 4.26 8.24001 4.02 7.56001C3.82 6.84001 3.4 6.36001 2.76 6.12001C2.16 5.84001 1.24 5.68001 -5.28991e-07 5.64001V4.44001ZM18.72 5.64001C17.28 5.64001 16.34 5.98001 15.9 6.66001C15.46 7.34001 15.24 8.72001 15.24 10.8V40.56C15.24 41.96 15.34 43.02 15.54 43.74C15.78 44.46 16.18 44.94 16.74 45.18C17.3 45.42 18.14 45.54 19.26 45.54C21.82 45.54 23.68 44.64 24.84 42.84C26.04 41 26.64 38.4 26.64 35.04C26.64 31.96 25.88 29.58 24.36 27.9C22.88 26.22 20.4 25.38 16.92 25.38H12.18C12.18 25.38 12.18 25.22 12.18 24.9C12.18 24.54 12.18 24.36 12.18 24.36H17.34C19.06 24.36 20.38 23.92 21.3 23.04C22.22 22.12 22.86 20.92 23.22 19.44C23.58 17.92 23.76 16.3 23.76 14.58C23.76 11.62 23.36 9.40001 22.56 7.92001C21.8 6.40001 20.52 5.64001 18.72 5.64001ZM48.81 0.180011C50.69 0.180011 52.15 0.600011 53.19 1.44001C54.27 2.28001 54.81 3.50001 54.81 5.10001C54.81 6.70001 54.27 7.92001 53.19 8.76001C52.15 9.60001 50.69 10.02 48.81 10.02C46.93 10.02 45.45 9.60001 44.37 8.76001C43.33 7.92001 42.81 6.70001 42.81 5.10001C42.81 3.50001 43.33 2.28001 44.37 1.44001C45.45 0.600011 46.93 0.180011 48.81 0.180011ZM54.09 15.18V41.34C54.09 43.02 54.35 44.16 54.87 44.76C55.43 45.36 56.37 45.66 57.69 45.66V46.92C56.89 46.88 55.71 46.84 54.15 46.8C52.59 46.72 51.01 46.68 49.41 46.68C47.81 46.68 46.17 46.72 44.49 46.8C42.85 46.84 41.61 46.88 40.77 46.92V45.66C42.09 45.66 43.01 45.36 43.53 44.76C44.09 44.16 44.37 43.02 44.37 41.34V22.38C44.37 20.58 44.11 19.26 43.59 18.42C43.07 17.54 42.13 17.1 40.77 17.1V15.84C42.05 15.96 43.29 16.02 44.49 16.02C46.29 16.02 47.99 15.96 49.59 15.84C51.23 15.68 52.73 15.46 54.09 15.18ZM81.6445 15C84.6845 15 87.2045 16.26 89.2045 18.78C91.2445 21.26 92.2645 25.1 92.2645 30.3C92.2645 34.62 91.6245 38.08 90.3445 40.68C89.1045 43.24 87.4245 45.06 85.3045 46.14C83.2245 47.22 80.9245 47.76 78.4045 47.76C76.9245 47.76 75.5445 47.58 74.2645 47.22C73.0245 46.86 71.8845 46.2 70.8445 45.24L71.6245 44.64C72.2645 45.28 72.9845 45.76 73.7845 46.08C74.5845 46.36 75.3645 46.5 76.1245 46.5C78.1645 46.5 79.6645 45.26 80.6245 42.78C81.6245 40.26 82.1245 36.46 82.1245 31.38C82.1245 27.9 81.9245 25.18 81.5245 23.22C81.1645 21.26 80.6245 19.88 79.9045 19.08C79.2245 18.24 78.4045 17.82 77.4445 17.82C76.2045 17.82 75.0645 18.32 74.0245 19.32C73.0245 20.28 72.4845 21.6 72.4045 23.28L72.2845 20.76C73.0845 18.84 74.3045 17.4 75.9445 16.44C77.5845 15.48 79.4845 15 81.6445 15ZM72.4645 9.53674e-06V46.38C71.3045 46.02 70.1245 45.88 68.9245 45.96C67.7245 46 66.6245 46.2 65.6245 46.56C64.6245 46.88 63.8245 47.32 63.2245 47.88L62.3245 47.34C62.5245 46.78 62.6445 46.22 62.6845 45.66C62.7245 45.1 62.7445 44.54 62.7445 43.98V7.20001C62.7445 5.40001 62.4845 4.08001 61.9645 3.24001C61.4845 2.36001 60.5445 1.92001 59.1445 1.92001V0.660012C60.4245 0.780013 61.6645 0.840013 62.8645 0.840013C64.7045 0.840013 66.4245 0.780013 68.0245 0.660012C69.6245 0.500011 71.1045 0.280011 72.4645 9.53674e-06ZM108.225 9.53674e-06V41.34C108.225 43.02 108.485 44.16 109.005 44.76C109.565 45.36 110.505 45.66 111.825 45.66V46.92C111.065 46.88 109.905 46.84 108.345 46.8C106.785 46.72 105.185 46.68 103.545 46.68C101.945 46.68 100.305 46.72 98.625 46.8C96.985 46.84 95.745 46.88 94.905 46.92V45.66C96.225 45.66 97.145 45.36 97.665 44.76C98.225 44.16 98.505 43.02 98.505 41.34V7.14001C98.505 5.38001 98.245 4.08001 97.725 3.24001C97.245 2.36001 96.305 1.92001 94.905 1.92001V0.660012C96.185 0.780013 97.425 0.840013 98.625 0.840013C100.465 0.840013 102.185 0.780013 103.785 0.660012C105.385 0.500011 106.865 0.280011 108.225 9.53674e-06ZM122.404 0.180011C124.284 0.180011 125.744 0.600011 126.784 1.44001C127.864 2.28001 128.404 3.50001 128.404 5.10001C128.404 6.70001 127.864 7.92001 126.784 8.76001C125.744 9.60001 124.284 10.02 122.404 10.02C120.524 10.02 119.044 9.60001 117.964 8.76001C116.924 7.92001 116.404 6.70001 116.404 5.10001C116.404 3.50001 116.924 2.28001 117.964 1.44001C119.044 0.600011 120.524 0.180011 122.404 0.180011ZM127.684 15.18V41.34C127.684 43.02 127.944 44.16 128.464 44.76C129.024 45.36 129.964 45.66 131.284 45.66V46.92C130.484 46.88 129.304 46.84 127.744 46.8C126.184 46.72 124.604 46.68 123.004 46.68C121.404 46.68 119.764 46.72 118.084 46.8C116.444 46.84 115.204 46.88 114.364 46.92V45.66C115.684 45.66 116.604 45.36 117.124 44.76C117.684 44.16 117.964 43.02 117.964 41.34V22.38C117.964 20.58 117.704 19.26 117.184 18.42C116.664 17.54 115.724 17.1 114.364 17.1V15.84C115.644 15.96 116.884 16.02 118.084 16.02C119.884 16.02 121.584 15.96 123.184 15.84C124.824 15.68 126.324 15.46 127.684 15.18ZM149.478 15C152.478 15 155.098 15.54 157.338 16.62C159.618 17.66 161.378 19.38 162.618 21.78C163.898 24.18 164.538 27.38 164.538 31.38C164.538 35.38 163.898 38.58 162.618 40.98C161.378 43.38 159.618 45.12 157.338 46.2C155.098 47.24 152.478 47.76 149.478 47.76C146.518 47.76 143.898 47.24 141.618 46.2C139.378 45.12 137.618 43.38 136.338 40.98C135.058 38.58 134.418 35.38 134.418 31.38C134.418 27.38 135.058 24.18 136.338 21.78C137.618 19.38 139.378 17.66 141.618 16.62C143.898 15.54 146.518 15 149.478 15ZM149.478 16.2C148.078 16.2 146.898 17.4 145.938 19.8C145.018 22.16 144.558 26.02 144.558 31.38C144.558 36.74 145.018 40.62 145.938 43.02C146.898 45.38 148.078 46.56 149.478 46.56C150.918 46.56 152.098 45.38 153.018 43.02C153.938 40.62 154.398 36.74 154.398 31.38C154.398 26.02 153.938 22.16 153.018 19.8C152.098 17.4 150.918 16.2 149.478 16.2Z" fill="black"/>
</svg>
